<svg xmlns="http://www.w3.org/2000/svg" xmlns:xlink="http://www.w3.org/1999/xlink" width="830" height="515.91"><rect width="830" height="515.91" rx="5" ry="5" class="a"/><svg y="0%" x="0%"><circle cx="20" cy="20" r="6" fill="#ff5f58"/><circle cx="40" cy="20" r="6" fill="#ffbd2e"/><circle cx="60" cy="20" r="6" fill="#18c132"/></svg><svg height="455.91" viewBox="0 0 79 45.591" width="790" x="15" xmlns="http://www.w3.org/2000/svg" xmlns:xlink="http://www.w3.org/1999/xlink" y="50"><style>@keyframes q{0%{transform:translateX(0)}3.8%{transform:translateX(-79px)}4%{transform:translateX(-158px)}4.1%{transform:translateX(-237px)}4.2%{transform:translateX(-316px)}8%{transform:translateX(-474px)}8.1%{transform:translateX(-553px)}32.3%{transform:translateX(-711px)}32.4%{transform:translateX(-790px)}35.6%{transform:translateX(-948px)}39.4%{transform:translateX(-1027px)}44.8%{transform:translateX(-1106px)}44.9%{transform:translateX(-1185px)}46.8%{transform:translateX(-1343px)}49.7%{transform:translateX(-1501px)}52.8%{transform:translateX(-1659px)}58.1%{transform:translateX(-1738px)}61.4%{transform:translateX(-1817px)}65.4%{transform:translateX(-1896px)}65.8%{transform:translateX(-2291px)}70.8%{transform:translateX(-2449px)}72.8%{transform:translateX(-2607px)}74.9%{transform:translateX(-2765px)}77%{transform:translateX(-2923px)}78.7%{transform:translateX(-3239px)}78.8%{transform:translateX(-3397px)}82.9%{transform:translateX(-3634px)}to{transform:translateX(-3792px)}}.a{fill:#282d35}.f,.g{font-weight:700}.f{fill:#66c2cd;white-space:pre}.g{fill:#dbab79}.g,.h,.i,.j{white-space:pre}.h{fill:#a8cc8c;font-weight:700}.i,.j{fill:#b9c0cb}.j{fill:#005fd7}.k,.l,.m,.n,.s,.t{fill:#555;white-space:pre}.l,.m,.n,.s,.t{fill:#00afff}.m,.n,.s,.t{fill:#a8cc8c}.n,.s,.t{fill:#dbab79}.s,.t{fill:red}.t{fill:#00afff;text-decoration:underline}</style><g font-family="Monaco,Consolas,Menlo,'Bitstream Vera Sans Mono','Powerline Symbols',monospace" font-size="1.67"><defs><symbol id="1"><text y="1.67" class="f">js/packages/heap-data-structure</text></symbol><symbol id="2"><text y="1.67" class="g">17:02:31</text><text x="9.018" y="1.67" class="h">[I]</text><text x="13.026" y="1.67" class="i">➜</text><text x="15.03" y="1.67" class="j">geez</text><text x="20.04" y="1.67" class="k">pull</text></symbol><symbol id="3"><text y="1.67" class="g">17:02:31</text><text x="9.018" y="1.67" class="h">[I]</text><text x="13.026" y="1.67" class="i">➜</text><text x="15.03" y="1.67" class="j">geez</text><text x="20.04" y="1.67" class="l">pull</text></symbol><symbol id="4"><text x="2.004" y="1.67" class="m">✔</text><text x="4.008" y="1.67" class="i">Searching</text><text x="14.028" y="1.67" class="i">for</text><text x="18.036" y="1.67" class="i">repos</text></symbol><symbol id="5"><text x="2.004" y="1.67" class="n">❯</text><text x="4.008" y="1.67" class="i">Applying</text><text x="13.026" y="1.67" class="i">&apos;git</text><text x="18.036" y="1.67" class="i">pull&apos;</text><text x="24.048" y="1.67" class="i">to</text><text x="27.054" y="1.67" class="i">all</text><text x="31.062" y="1.67" class="i">repos</text><text x="37.074" y="1.67" class="i">(0/6</text><text x="42.084" y="1.67" class="i">~</text><text x="44.088" y="1.67" class="i">0%)</text></symbol><symbol id="6"><text x="4.008" y="1.67" class="n">⠙</text><text x="6.012" y="1.67" class="i">about</text></symbol><symbol id="7"><text x="4.008" y="1.67" class="n">⠙</text><text x="6.012" y="1.67" class="i">binomial-heap</text></symbol><symbol id="8"><text x="4.008" y="1.67" class="n">⠙</text><text x="6.012" y="1.67" class="i">fibonacci-heap</text></symbol><symbol id="9"><text x="4.008" y="1.67" class="n">⠙</text><text x="6.012" y="1.67" class="i">pairing-heap</text></symbol><symbol id="10"><text x="4.008" y="1.67" class="n">⠙</text><text x="6.012" y="1.67" class="i">d-ary-heap</text></symbol><symbol id="11"><text x="4.008" y="1.67" class="n">⠙</text><text x="6.012" y="1.67" class="i">specification</text></symbol><symbol id="12"><text x="4.008" y="1.67" class="n">⠹</text><text x="6.012" y="1.67" class="i">about</text></symbol><symbol id="13"><text x="4.008" y="1.67" class="n">⠹</text><text x="6.012" y="1.67" class="i">binomial-heap</text></symbol><symbol id="14"><text x="4.008" y="1.67" class="n">⠹</text><text x="6.012" y="1.67" class="i">fibonacci-heap</text></symbol><symbol id="15"><text x="4.008" y="1.67" class="n">⠹</text><text x="6.012" y="1.67" class="i">pairing-heap</text></symbol><symbol id="16"><text x="4.008" y="1.67" class="n">⠹</text><text x="6.012" y="1.67" class="i">d-ary-heap</text></symbol><symbol id="17"><text x="4.008" y="1.67" class="n">⠹</text><text x="6.012" y="1.67" class="i">specification</text></symbol><symbol id="18"><text x="4.008" y="1.67" class="n">⠸</text><text x="6.012" y="1.67" class="i">about</text></symbol><symbol id="19"><text x="4.008" y="1.67" class="n">⠸</text><text x="6.012" y="1.67" class="i">binomial-heap</text></symbol><symbol id="20"><text x="4.008" y="1.67" class="n">⠸</text><text x="6.012" y="1.67" class="i">fibonacci-heap</text></symbol><symbol id="21"><text x="4.008" y="1.67" class="n">⠸</text><text x="6.012" y="1.67" class="i">pairing-heap</text></symbol><symbol id="22"><text x="4.008" y="1.67" class="n">⠸</text><text x="6.012" y="1.67" class="i">d-ary-heap</text></symbol><symbol id="23"><text x="4.008" y="1.67" class="n">⠸</text><text x="6.012" y="1.67" class="i">specification</text></symbol><symbol id="24"><text x="4.008" y="1.67" class="n">⠼</text><text x="6.012" y="1.67" class="i">about</text></symbol><symbol id="25"><text x="4.008" y="1.67" class="n">⠼</text><text x="6.012" y="1.67" class="i">binomial-heap</text></symbol><symbol id="26"><text x="4.008" y="1.67" class="n">⠼</text><text x="6.012" y="1.67" class="i">fibonacci-heap</text></symbol><symbol id="27"><text x="4.008" y="1.67" class="n">⠼</text><text x="6.012" y="1.67" class="i">pairing-heap</text></symbol><symbol id="28"><text x="4.008" y="1.67" class="n">⠼</text><text x="6.012" y="1.67" class="i">d-ary-heap</text></symbol><symbol id="29"><text x="4.008" y="1.67" class="n">⠼</text><text x="6.012" y="1.67" class="i">specification</text></symbol><symbol id="30"><text x="2.004" y="1.67" class="m">✔</text><text x="4.008" y="1.67" class="i">Applying</text><text x="13.026" y="1.67" class="i">&apos;git</text><text x="18.036" y="1.67" class="i">pull&apos;</text><text x="24.048" y="1.67" class="i">to</text><text x="27.054" y="1.67" class="i">all</text><text x="31.062" y="1.67" class="i">repos</text><text x="37.074" y="1.67" class="i">(6/6</text><text x="42.084" y="1.67" class="i">~</text><text x="44.088" y="1.67" class="i">100%)</text></symbol><symbol id="31"><text y="1.67" class="f">js/packages/heap-data-structure</text><text x="32.064" y="1.67" class="g">624ms</text></symbol><symbol id="32"><text y="1.67" class="g">17:02:35</text><text x="9.018" y="1.67" class="h">[I]</text><text x="13.026" y="1.67" class="i">➜</text></symbol><symbol id="a"><path fill="transparent" d="M0 0h79v21H0z"/></symbol><symbol id="b"><path fill="#6f7683" d="M0 0h1.102v2.171H0z"/></symbol></defs><path class="a" d="M0 0h79v45.591H0z"/><g style="animation-duration:4.792156s;animation-iteration-count:infinite;animation-name:q;animation-timing-function:steps(1,end)"><svg width="3871"><svg><use xlink:href="#a"/><use xlink:href="#b" x="-.004"/></svg><svg x="79"><use xlink:href="#a"/><use xlink:href="#b" x="-.004"/></svg><svg x="158"><use xlink:href="#a"/><use xlink:href="#b" x="-.004"/></svg><svg x="237"><use xlink:href="#a"/><use xlink:href="#b" x="-.004"/></svg><svg x="316"><use xlink:href="#a"/><use xlink:href="#b" x="-.004"/></svg><svg x="395"><use xlink:href="#a"/><use xlink:href="#b" x="-.004"/></svg><svg x="474"><use xlink:href="#a"/><use xlink:href="#b" x="-.004"/></svg><svg x="553"><use xlink:href="#a"/><use xlink:href="#b" x="14.996" y="2.146"/><use xlink:href="#1"/><text y="3.841" class="g">17:02:31</text><text x="9.018" y="3.841" class="h">[I]</text><text x="13.026" y="3.841" class="i">➜</text></svg><svg x="632"><use xlink:href="#a"/><use xlink:href="#b" x="15.996" y="2.146"/><use xlink:href="#1"/><text y="3.841" class="g">17:02:31</text><text x="9.018" y="3.841" class="h">[I]</text><text x="13.026" y="3.841" class="i">➜</text><text x="15.03" y="3.841" class="i">g</text></svg><svg x="711"><use xlink:href="#a"/><use xlink:href="#b" x="15.996" y="2.146"/><use xlink:href="#1"/><text y="3.841" class="g">17:02:31</text><text x="9.018" y="3.841" class="h">[I]</text><text x="13.026" y="3.841" class="i">➜</text><text x="15.03" y="3.841" class="j">g</text></svg><svg x="790"><use xlink:href="#a"/><use xlink:href="#b" x="15.996" y="2.146"/><use xlink:href="#1"/><text y="3.841" class="g">17:02:31</text><text x="9.018" y="3.841" class="h">[I]</text><text x="13.026" y="3.841" class="i">➜</text><text x="15.03" y="3.841" class="j">g</text><text x="16.032" y="3.841" class="k">eez</text><text x="20.04" y="3.841" class="k">pull</text></svg><svg x="869"><use xlink:href="#a"/><use xlink:href="#b" x="16.996" y="2.146"/><use xlink:href="#1"/><text y="3.841" class="g">17:02:31</text><text x="9.018" y="3.841" class="h">[I]</text><text x="13.026" y="3.841" class="i">➜</text><text x="15.03" y="3.841" class="j">ge</text><text x="17.034" y="3.841" class="k">ez</text><text x="20.04" y="3.841" class="k">pull</text></svg><svg x="948"><use xlink:href="#a"/><use xlink:href="#b" x="16.996" y="2.146"/><use xlink:href="#1"/><text y="3.841" class="g">17:02:31</text><text x="9.018" y="3.841" class="h">[I]</text><text x="13.026" y="3.841" class="i">➜</text><text x="15.03" y="3.841" class="s">ge</text><text x="17.034" y="3.841" class="k">ez</text><text x="20.04" y="3.841" class="k">pull</text></svg><svg x="1027"><use xlink:href="#a"/><use xlink:href="#b" x="17.996" y="2.146"/><use xlink:href="#1"/><text y="3.841" class="g">17:02:31</text><text x="9.018" y="3.841" class="h">[I]</text><text x="13.026" y="3.841" class="i">➜</text><text x="15.03" y="3.841" class="s">gee</text><text x="18.036" y="3.841" class="k">z</text><text x="20.04" y="3.841" class="k">pull</text></svg><svg x="1106"><use xlink:href="#a"/><use xlink:href="#b" x="18.996" y="2.146"/><use xlink:href="#1"/><text y="3.841" class="g">17:02:31</text><text x="9.018" y="3.841" class="h">[I]</text><text x="13.026" y="3.841" class="i">➜</text><text x="15.03" y="3.841" class="s">geez</text><text x="20.04" y="3.841" class="k">pull</text></svg><svg x="1185"><use xlink:href="#a"/><use xlink:href="#b" x="18.996" y="2.146"/><use xlink:href="#1"/><use xlink:href="#2" y="2.171"/></svg><svg x="1264"><use xlink:href="#a"/><use xlink:href="#b" x="19.996" y="2.146"/><use xlink:href="#1"/><use xlink:href="#2" y="2.171"/></svg><svg x="1343"><use xlink:href="#a"/><use xlink:href="#b" x="19.996" y="2.146"/><use xlink:href="#1"/><use xlink:href="#2" y="2.171"/></svg><svg x="1422"><use xlink:href="#a"/><use xlink:href="#b" x="20.996" y="2.146"/><use xlink:href="#1"/><text y="3.841" class="g">17:02:31</text><text x="9.018" y="3.841" class="h">[I]</text><text x="13.026" y="3.841" class="i">➜</text><text x="15.03" y="3.841" class="j">geez</text><text x="20.04" y="3.841" class="i">p</text><text x="21.042" y="3.841" class="k">ull</text></svg><svg x="1501"><use xlink:href="#a"/><use xlink:href="#b" x="20.996" y="2.146"/><use xlink:href="#1"/><text y="3.841" class="g">17:02:31</text><text x="9.018" y="3.841" class="h">[I]</text><text x="13.026" y="3.841" class="i">➜</text><text x="15.03" y="3.841" class="j">geez</text><text x="20.04" y="3.841" class="t">p</text><text x="21.042" y="3.841" class="k">ull</text></svg><svg x="1580"><use xlink:href="#a"/><use xlink:href="#b" x="21.996" y="2.146"/><use xlink:href="#1"/><text y="3.841" class="g">17:02:31</text><text x="9.018" y="3.841" class="h">[I]</text><text x="13.026" y="3.841" class="i">➜</text><text x="15.03" y="3.841" class="j">geez</text><text x="20.04" y="3.841" class="t">pu</text><text x="22.044" y="3.841" class="k">ll</text></svg><svg x="1659"><use xlink:href="#a"/><use xlink:href="#b" x="21.996" y="2.146"/><use xlink:href="#1"/><text y="3.841" class="g">17:02:31</text><text x="9.018" y="3.841" class="h">[I]</text><text x="13.026" y="3.841" class="i">➜</text><text x="15.03" y="3.841" class="j">geez</text><text x="20.04" y="3.841" class="l">pu</text><text x="22.044" y="3.841" class="k">ll</text></svg><svg x="1738"><use xlink:href="#a"/><use xlink:href="#b" x="22.996" y="2.146"/><use xlink:href="#1"/><text y="3.841" class="g">17:02:31</text><text x="9.018" y="3.841" class="h">[I]</text><text x="13.026" y="3.841" class="i">➜</text><text x="15.03" y="3.841" class="j">geez</text><text x="20.04" y="3.841" class="l">pul</text><text x="23.046" y="3.841" class="k">l</text></svg><svg x="1817"><use xlink:href="#a"/><use xlink:href="#b" x="23.996" y="2.146"/><use xlink:href="#1"/><use xlink:href="#3" y="2.171"/></svg><svg x="1896"><use xlink:href="#a"/><use xlink:href="#b" x="-.004" y="4.317"/><use xlink:href="#1"/><use xlink:href="#3" y="2.171"/></svg><svg x="1975"><use xlink:href="#a"/><use xlink:href="#b" x="-.004" y="4.317"/><use xlink:href="#1"/><use xlink:href="#3" y="2.171"/></svg><svg x="2054"><use xlink:href="#a"/><use xlink:href="#b" x="-.004" y="4.317"/><use xlink:href="#1"/><use xlink:href="#3" y="2.171"/></svg><svg x="2133"><use xlink:href="#a"/><use xlink:href="#b" x="-.004" y="4.317"/><use xlink:href="#1"/><use xlink:href="#3" y="2.171"/></svg><svg x="2212"><use xlink:href="#a"/><use xlink:href="#b" x="-.004" y="4.317"/><use xlink:href="#1"/><use xlink:href="#3" y="2.171"/></svg><svg x="2291"><use xlink:href="#a"/><use xlink:href="#b" x="-.004" y="4.317"/><use xlink:href="#1"/><use xlink:href="#3" y="2.171"/></svg><svg x="2370"><use xlink:href="#a"/><use xlink:href="#1"/><use xlink:href="#3" y="2.171"/></svg><svg x="2449"><use xlink:href="#a"/><use xlink:href="#1"/><use xlink:href="#3" y="2.171"/><use xlink:href="#4" y="4.342"/><use xlink:href="#5" y="6.513"/><use xlink:href="#6" y="8.684"/><use xlink:href="#7" y="10.855"/><use xlink:href="#8" y="13.026"/><use xlink:href="#9" y="15.197"/><use xlink:href="#10" y="17.368"/><use xlink:href="#11" y="19.539"/></svg><svg x="2528"><use xlink:href="#a"/><use xlink:href="#1"/><use xlink:href="#3" y="2.171"/><use xlink:href="#4" y="4.342"/><use xlink:href="#5" y="6.513"/><use xlink:href="#6" y="8.684"/><use xlink:href="#7" y="10.855"/><use xlink:href="#8" y="13.026"/><use xlink:href="#9" y="15.197"/><use xlink:href="#10" y="17.368"/><use xlink:href="#11" y="19.539"/></svg><svg x="2607"><use xlink:href="#a"/><use xlink:href="#1"/><use xlink:href="#3" y="2.171"/><use xlink:href="#4" y="4.342"/><use xlink:href="#5" y="6.513"/><use xlink:href="#12" y="8.684"/><use xlink:href="#13" y="10.855"/><use xlink:href="#14" y="13.026"/><use xlink:href="#15" y="15.197"/><use xlink:href="#16" y="17.368"/><use xlink:href="#17" y="19.539"/></svg><svg x="2686"><use xlink:href="#a"/><use xlink:href="#1"/><use xlink:href="#3" y="2.171"/><use xlink:href="#4" y="4.342"/><use xlink:href="#5" y="6.513"/><use xlink:href="#12" y="8.684"/><use xlink:href="#13" y="10.855"/><use xlink:href="#14" y="13.026"/><use xlink:href="#15" y="15.197"/><use xlink:href="#16" y="17.368"/><use xlink:href="#17" y="19.539"/></svg><svg x="2765"><use xlink:href="#a"/><use xlink:href="#1"/><use xlink:href="#3" y="2.171"/><use xlink:href="#4" y="4.342"/><use xlink:href="#5" y="6.513"/><use xlink:href="#18" y="8.684"/><use xlink:href="#19" y="10.855"/><use xlink:href="#20" y="13.026"/><use xlink:href="#21" y="15.197"/><use xlink:href="#22" y="17.368"/><use xlink:href="#23" y="19.539"/></svg><svg x="2844"><use xlink:href="#a"/><use xlink:href="#1"/><use xlink:href="#3" y="2.171"/><use xlink:href="#4" y="4.342"/><use xlink:href="#5" y="6.513"/><use xlink:href="#18" y="8.684"/><use xlink:href="#19" y="10.855"/><use xlink:href="#20" y="13.026"/><use xlink:href="#21" y="15.197"/><use xlink:href="#22" y="17.368"/><use xlink:href="#23" y="19.539"/></svg><svg x="2923"><use xlink:href="#a"/><use xlink:href="#1"/><use xlink:href="#3" y="2.171"/><use xlink:href="#4" y="4.342"/><use xlink:href="#5" y="6.513"/><use xlink:href="#24" y="8.684"/><use xlink:href="#25" y="10.855"/><use xlink:href="#26" y="13.026"/><use xlink:href="#27" y="15.197"/><use xlink:href="#28" y="17.368"/><use xlink:href="#29" y="19.539"/></svg><svg x="3002"><use xlink:href="#a"/><use xlink:href="#1"/><use xlink:href="#3" y="2.171"/><use xlink:href="#4" y="4.342"/><use xlink:href="#5" y="6.513"/><use xlink:href="#24" y="8.684"/><use xlink:href="#25" y="10.855"/><use xlink:href="#26" y="13.026"/><use xlink:href="#27" y="15.197"/><use xlink:href="#28" y="17.368"/><use xlink:href="#29" y="19.539"/></svg><svg x="3081"><use xlink:href="#a"/><use xlink:href="#1"/><use xlink:href="#3" y="2.171"/><use xlink:href="#4" y="4.342"/><use xlink:href="#30" y="6.513"/></svg><svg x="3160"><use xlink:href="#a"/><use xlink:href="#b" x="-.004" y="10.83"/><use xlink:href="#1"/><use xlink:href="#3" y="2.171"/><use xlink:href="#4" y="4.342"/><use xlink:href="#30" y="6.513"/></svg><svg x="3239"><use xlink:href="#a"/><use xlink:href="#b" x="-.004" y="10.83"/><use xlink:href="#1"/><use xlink:href="#3" y="2.171"/><use xlink:href="#4" y="4.342"/><use xlink:href="#30" y="6.513"/></svg><svg x="3318"><use xlink:href="#a"/><use xlink:href="#b" x="-.004" y="10.83"/><use xlink:href="#1"/><use xlink:href="#3" y="2.171"/><use xlink:href="#4" y="4.342"/><use xlink:href="#30" y="6.513"/></svg><svg x="3397"><use xlink:href="#a"/><use xlink:href="#b" x="-.004" y="10.83"/><use xlink:href="#1"/><use xlink:href="#3" y="2.171"/><use xlink:href="#4" y="4.342"/><use xlink:href="#30" y="6.513"/></svg><svg x="3476"><use xlink:href="#a"/><use xlink:href="#b" x="-.004" y="10.83"/><use xlink:href="#1"/><use xlink:href="#3" y="2.171"/><use xlink:href="#4" y="4.342"/><use xlink:href="#30" y="6.513"/></svg><svg x="3555"><use xlink:href="#a"/><use xlink:href="#b" x="-.004" y="10.83"/><use xlink:href="#1"/><use xlink:href="#3" y="2.171"/><use xlink:href="#4" y="4.342"/><use xlink:href="#30" y="6.513"/></svg><svg x="3634"><use xlink:href="#a"/><use xlink:href="#b" x="14.996" y="13.001"/><use xlink:href="#1"/><use xlink:href="#3" y="2.171"/><use xlink:href="#4" y="4.342"/><use xlink:href="#30" y="6.513"/><use xlink:href="#31" y="10.855"/><use xlink:href="#32" y="13.026"/></svg><svg x="3713"><use xlink:href="#a"/><use xlink:href="#b" x="-.004" y="15.172"/><use xlink:href="#1"/><use xlink:href="#3" y="2.171"/><use xlink:href="#4" y="4.342"/><use xlink:href="#30" y="6.513"/><use xlink:href="#31" y="10.855"/><use xlink:href="#32" y="13.026"/></svg><svg x="3792"><use xlink:href="#a"/><use xlink:href="#b" x="-.004" y="15.172"/><use xlink:href="#1"/><use xlink:href="#3" y="2.171"/><use xlink:href="#4" y="4.342"/><use xlink:href="#30" y="6.513"/><use xlink:href="#31" y="10.855"/><use xlink:href="#32" y="13.026"/></svg></svg></g></g></svg></svg>