<svg xmlns="http://www.w3.org/2000/svg" xmlns:xlink="http://www.w3.org/1999/xlink" width="1950" height="624.46"><rect width="1950" height="624.46" rx="5" ry="5" class="a"/><svg y="0%" x="0%"><circle cx="20" cy="20" r="6" fill="#ff5f58"/><circle cx="40" cy="20" r="6" fill="#ffbd2e"/><circle cx="60" cy="20" r="6" fill="#18c132"/></svg><svg height="564.46" viewBox="0 0 191 56.446" width="1910" x="15" xmlns="http://www.w3.org/2000/svg" xmlns:xlink="http://www.w3.org/1999/xlink" y="50"><style>@keyframes q{0%{transform:translateX(0)}2.7%{transform:translateX(-191px)}2.8%{transform:translateX(-382px)}2.9%{transform:translateX(-764px)}5.6%{transform:translateX(-1719px)}29.3%{transform:translateX(-2292px)}33.6%{transform:translateX(-2865px)}37.5%{transform:translateX(-3056px)}41.5%{transform:translateX(-3438px)}43.2%{transform:translateX(-3820px)}45.8%{transform:translateX(-4202px)}47.1%{transform:translateX(-4584px)}47.2%{transform:translateX(-4775px)}51%{transform:translateX(-4966px)}51.1%{transform:translateX(-5157px)}53.4%{transform:translateX(-5348px)}59.2%{transform:translateX(-5539px)}59.5%{transform:translateX(-6303px)}62.8%{transform:translateX(-6685px)}64.2%{transform:translateX(-7067px)}65.6%{transform:translateX(-7449px)}67.1%{transform:translateX(-7831px)}68.5%{transform:translateX(-8213px)}69.4%{transform:translateX(-8977px)}69.5%{transform:translateX(-9550px)}72.2%{transform:translateX(-9932px)}to{transform:translateX(-10314px)}}.a{fill:#282d35}.f,.g{font-weight:700}.f{fill:#66c2cd;white-space:pre}.g{fill:#dbab79}.g,.h,.i,.j{white-space:pre}.h{fill:#a8cc8c;font-weight:700}.i,.j{fill:#b9c0cb}.j{fill:#005fd7}.k,.l,.m,.n,.s,.t{fill:#555;white-space:pre}.l,.m,.n,.s,.t{fill:#00afff}.m,.n,.s,.t{fill:#a8cc8c}.n,.s,.t{fill:#dbab79}.s,.t{fill:red}.t{fill:#00afff;text-decoration:underline}</style><g font-family="Monaco,Consolas,Menlo,'Bitstream Vera Sans Mono','Powerline Symbols',monospace" font-size="1.67"><defs><symbol id="1"><text y="1.67" class="f">js/packages/heap-data-structure</text></symbol><symbol id="2"><text y="1.67" class="g">16:54:21</text><text x="9.018" y="1.67" class="h">[I]</text><text x="13.026" y="1.67" class="i">➜</text><text x="15.03" y="1.67" class="j">geez</text><text x="20.04" y="1.67" class="k">pl</text></symbol><symbol id="3"><text y="1.67" class="g">16:54:21</text><text x="9.018" y="1.67" class="h">[I]</text><text x="13.026" y="1.67" class="i">➜</text><text x="15.03" y="1.67" class="j">geez</text><text x="20.04" y="1.67" class="l">pull</text></symbol><symbol id="4"><text x="2.004" y="1.67" class="m">✔</text><text x="4.008" y="1.67" class="i">Searching</text><text x="14.028" y="1.67" class="i">for</text><text x="18.036" y="1.67" class="i">repos</text></symbol><symbol id="5"><text x="2.004" y="1.67" class="n">❯</text><text x="4.008" y="1.67" class="i">Applying</text><text x="13.026" y="1.67" class="i">&apos;git</text><text x="18.036" y="1.67" class="i">pull&apos;</text><text x="24.048" y="1.67" class="i">to</text><text x="27.054" y="1.67" class="i">all</text><text x="31.062" y="1.67" class="i">repos</text><text x="37.074" y="1.67" class="i">(0/6</text><text x="42.084" y="1.67" class="i">~</text><text x="44.088" y="1.67" class="i">0%)</text></symbol><symbol id="6"><text x="4.008" y="1.67" class="n">⠙</text><text x="6.012" y="1.67" class="i">about</text></symbol><symbol id="7"><text x="4.008" y="1.67" class="n">⠙</text><text x="6.012" y="1.67" class="i">binomial-heap</text></symbol><symbol id="8"><text x="4.008" y="1.67" class="n">⠙</text><text x="6.012" y="1.67" class="i">d-ary-heap</text></symbol><symbol id="9"><text x="4.008" y="1.67" class="n">⠙</text><text x="6.012" y="1.67" class="i">fibonacci-heap</text></symbol><symbol id="10"><text x="4.008" y="1.67" class="n">⠙</text><text x="6.012" y="1.67" class="i">pairing-heap</text></symbol><symbol id="11"><text x="4.008" y="1.67" class="n">⠙</text><text x="6.012" y="1.67" class="i">specification</text></symbol><symbol id="12"><text x="4.008" y="1.67" class="n">⠹</text><text x="6.012" y="1.67" class="i">about</text></symbol><symbol id="13"><text x="4.008" y="1.67" class="n">⠹</text><text x="6.012" y="1.67" class="i">binomial-heap</text></symbol><symbol id="14"><text x="4.008" y="1.67" class="n">⠹</text><text x="6.012" y="1.67" class="i">d-ary-heap</text></symbol><symbol id="15"><text x="4.008" y="1.67" class="n">⠹</text><text x="6.012" y="1.67" class="i">fibonacci-heap</text></symbol><symbol id="16"><text x="4.008" y="1.67" class="n">⠹</text><text x="6.012" y="1.67" class="i">pairing-heap</text></symbol><symbol id="17"><text x="4.008" y="1.67" class="n">⠹</text><text x="6.012" y="1.67" class="i">specification</text></symbol><symbol id="18"><text x="4.008" y="1.67" class="n">⠸</text><text x="6.012" y="1.67" class="i">about</text></symbol><symbol id="19"><text x="4.008" y="1.67" class="n">⠸</text><text x="6.012" y="1.67" class="i">binomial-heap</text></symbol><symbol id="20"><text x="4.008" y="1.67" class="n">⠸</text><text x="6.012" y="1.67" class="i">d-ary-heap</text></symbol><symbol id="21"><text x="4.008" y="1.67" class="n">⠸</text><text x="6.012" y="1.67" class="i">fibonacci-heap</text></symbol><symbol id="22"><text x="4.008" y="1.67" class="n">⠸</text><text x="6.012" y="1.67" class="i">pairing-heap</text></symbol><symbol id="23"><text x="4.008" y="1.67" class="n">⠸</text><text x="6.012" y="1.67" class="i">specification</text></symbol><symbol id="24"><text x="4.008" y="1.67" class="n">⠼</text><text x="6.012" y="1.67" class="i">about</text></symbol><symbol id="25"><text x="4.008" y="1.67" class="n">⠼</text><text x="6.012" y="1.67" class="i">binomial-heap</text></symbol><symbol id="26"><text x="4.008" y="1.67" class="n">⠼</text><text x="6.012" y="1.67" class="i">d-ary-heap</text></symbol><symbol id="27"><text x="4.008" y="1.67" class="n">⠼</text><text x="6.012" y="1.67" class="i">fibonacci-heap</text></symbol><symbol id="28"><text x="4.008" y="1.67" class="n">⠼</text><text x="6.012" y="1.67" class="i">pairing-heap</text></symbol><symbol id="29"><text x="4.008" y="1.67" class="n">⠼</text><text x="6.012" y="1.67" class="i">specification</text></symbol><symbol id="30"><text x="2.004" y="1.67" class="n">❯</text><text x="4.008" y="1.67" class="i">Applying</text><text x="13.026" y="1.67" class="i">&apos;git</text><text x="18.036" y="1.67" class="i">pull&apos;</text><text x="24.048" y="1.67" class="i">to</text><text x="27.054" y="1.67" class="i">all</text><text x="31.062" y="1.67" class="i">repos</text><text x="37.074" y="1.67" class="i">(4/6</text><text x="42.084" y="1.67" class="i">~</text><text x="44.088" y="1.67" class="i">67%)</text></symbol><symbol id="31"><text x="4.008" y="1.67" class="n">⠴</text><text x="6.012" y="1.67" class="i">binomial-heap</text></symbol><symbol id="32"><text x="4.008" y="1.67" class="n">⠴</text><text x="6.012" y="1.67" class="i">fibonacci-heap</text></symbol><symbol id="33"><text x="2.004" y="1.67" class="m">✔</text><text x="4.008" y="1.67" class="i">Applying</text><text x="13.026" y="1.67" class="i">&apos;git</text><text x="18.036" y="1.67" class="i">pull&apos;</text><text x="24.048" y="1.67" class="i">to</text><text x="27.054" y="1.67" class="i">all</text><text x="31.062" y="1.67" class="i">repos</text><text x="37.074" y="1.67" class="i">(6/6</text><text x="42.084" y="1.67" class="i">~</text><text x="44.088" y="1.67" class="i">100%)</text></symbol><symbol id="34"><text y="1.67" class="f">js/packages/heap-data-structure</text><text x="32.064" y="1.67" class="g">699ms</text></symbol><symbol id="35"><text y="1.67" class="g">16:54:26</text><text x="9.018" y="1.67" class="h">[I]</text><text x="13.026" y="1.67" class="i">➜</text></symbol><symbol id="a"><path fill="transparent" d="M0 0h191v26H0z"/></symbol><symbol id="b"><path fill="#6f7683" d="M0 0h1.102v2.171H0z"/></symbol></defs><path class="a" d="M0 0h191v56.446H0z"/><g style="animation-duration:7.011738s;animation-iteration-count:infinite;animation-name:q;animation-timing-function:steps(1,end)"><svg width="10505"><svg><use xlink:href="#a"/><use xlink:href="#b" x="-.004"/></svg><svg x="191"><use xlink:href="#a"/><use xlink:href="#b" x="-.004"/></svg><svg x="382"><use xlink:href="#a"/><use xlink:href="#b" x="-.004"/></svg><svg x="573"><use xlink:href="#a"/><use xlink:href="#b" x="-.004"/></svg><svg x="764"><use xlink:href="#a"/><use xlink:href="#b" x="-.004"/></svg><svg x="955"><use xlink:href="#a"/><use xlink:href="#b" x="-.004"/></svg><svg x="1146"><use xlink:href="#a"/><use xlink:href="#b" x="-.004"/></svg><svg x="1337"><use xlink:href="#a"/><use xlink:href="#b" x="-.004"/></svg><svg x="1528"><use xlink:href="#a"/><use xlink:href="#b" x="-.004"/></svg><svg x="1719"><use xlink:href="#a"/><use xlink:href="#b" x="14.996" y="2.146"/><use xlink:href="#1"/><text y="3.841" class="g">16:54:21</text><text x="9.018" y="3.841" class="h">[I]</text><text x="13.026" y="3.841" class="i">➜</text></svg><svg x="1910"><use xlink:href="#a"/><use xlink:href="#b" x="15.996" y="2.146"/><use xlink:href="#1"/><text y="3.841" class="g">16:54:21</text><text x="9.018" y="3.841" class="h">[I]</text><text x="13.026" y="3.841" class="i">➜</text><text x="15.03" y="3.841" class="i">g</text></svg><svg x="2101"><use xlink:href="#a"/><use xlink:href="#b" x="15.996" y="2.146"/><use xlink:href="#1"/><text y="3.841" class="g">16:54:21</text><text x="9.018" y="3.841" class="h">[I]</text><text x="13.026" y="3.841" class="i">➜</text><text x="15.03" y="3.841" class="j">g</text></svg><svg x="2292"><use xlink:href="#a"/><use xlink:href="#b" x="15.996" y="2.146"/><use xlink:href="#1"/><text y="3.841" class="g">16:54:21</text><text x="9.018" y="3.841" class="h">[I]</text><text x="13.026" y="3.841" class="i">➜</text><text x="15.03" y="3.841" class="j">g</text><text x="16.032" y="3.841" class="k">it</text><text x="19.038" y="3.841" class="k">ps</text></svg><svg x="2483"><use xlink:href="#a"/><use xlink:href="#b" x="16.996" y="2.146"/><use xlink:href="#1"/><text y="3.841" class="g">16:54:21</text><text x="9.018" y="3.841" class="h">[I]</text><text x="13.026" y="3.841" class="i">➜</text><text x="15.03" y="3.841" class="j">ge</text></svg><svg x="2674"><use xlink:href="#a"/><use xlink:href="#b" x="16.996" y="2.146"/><use xlink:href="#1"/><text y="3.841" class="g">16:54:21</text><text x="9.018" y="3.841" class="h">[I]</text><text x="13.026" y="3.841" class="i">➜</text><text x="15.03" y="3.841" class="j">ge</text><text x="17.034" y="3.841" class="k">ez</text><text x="20.04" y="3.841" class="k">pl</text></svg><svg x="2865"><use xlink:href="#a"/><use xlink:href="#b" x="16.996" y="2.146"/><use xlink:href="#1"/><text y="3.841" class="g">16:54:21</text><text x="9.018" y="3.841" class="h">[I]</text><text x="13.026" y="3.841" class="i">➜</text><text x="15.03" y="3.841" class="s">ge</text><text x="17.034" y="3.841" class="k">ez</text><text x="20.04" y="3.841" class="k">pl</text></svg><svg x="3056"><use xlink:href="#a"/><use xlink:href="#b" x="17.996" y="2.146"/><use xlink:href="#1"/><text y="3.841" class="g">16:54:21</text><text x="9.018" y="3.841" class="h">[I]</text><text x="13.026" y="3.841" class="i">➜</text><text x="15.03" y="3.841" class="s">gee</text><text x="18.036" y="3.841" class="k">z</text><text x="20.04" y="3.841" class="k">pl</text></svg><svg x="3247"><use xlink:href="#a"/><use xlink:href="#b" x="18.996" y="2.146"/><use xlink:href="#1"/><text y="3.841" class="g">16:54:21</text><text x="9.018" y="3.841" class="h">[I]</text><text x="13.026" y="3.841" class="i">➜</text><text x="15.03" y="3.841" class="s">geez</text><text x="20.04" y="3.841" class="k">pl</text></svg><svg x="3438"><use xlink:href="#a"/><use xlink:href="#b" x="18.996" y="2.146"/><use xlink:href="#1"/><use xlink:href="#2" y="2.171"/></svg><svg x="3629"><use xlink:href="#a"/><use xlink:href="#b" x="19.996" y="2.146"/><use xlink:href="#1"/><use xlink:href="#2" y="2.171"/></svg><svg x="3820"><use xlink:href="#a"/><use xlink:href="#b" x="19.996" y="2.146"/><use xlink:href="#1"/><use xlink:href="#2" y="2.171"/></svg><svg x="4011"><use xlink:href="#a"/><use xlink:href="#b" x="20.996" y="2.146"/><use xlink:href="#1"/><text y="3.841" class="g">16:54:21</text><text x="9.018" y="3.841" class="h">[I]</text><text x="13.026" y="3.841" class="i">➜</text><text x="15.03" y="3.841" class="j">geez</text><text x="20.04" y="3.841" class="i">p</text><text x="21.042" y="3.841" class="k">l</text></svg><svg x="4202"><use xlink:href="#a"/><use xlink:href="#b" x="20.996" y="2.146"/><use xlink:href="#1"/><text y="3.841" class="g">16:54:21</text><text x="9.018" y="3.841" class="h">[I]</text><text x="13.026" y="3.841" class="i">➜</text><text x="15.03" y="3.841" class="j">geez</text><text x="20.04" y="3.841" class="t">p</text><text x="21.042" y="3.841" class="k">l</text></svg><svg x="4393"><use xlink:href="#a"/><use xlink:href="#b" x="21.996" y="2.146"/><use xlink:href="#1"/><text y="3.841" class="g">16:54:21</text><text x="9.018" y="3.841" class="h">[I]</text><text x="13.026" y="3.841" class="i">➜</text><text x="15.03" y="3.841" class="j">geez</text><text x="20.04" y="3.841" class="t">pu</text></svg><svg x="4584"><use xlink:href="#a"/><use xlink:href="#b" x="21.996" y="2.146"/><use xlink:href="#1"/><text y="3.841" class="g">16:54:21</text><text x="9.018" y="3.841" class="h">[I]</text><text x="13.026" y="3.841" class="i">➜</text><text x="15.03" y="3.841" class="j">geez</text><text x="20.04" y="3.841" class="l">pu</text></svg><svg x="4775"><use xlink:href="#a"/><use xlink:href="#b" x="21.996" y="2.146"/><use xlink:href="#1"/><text y="3.841" class="g">16:54:21</text><text x="9.018" y="3.841" class="h">[I]</text><text x="13.026" y="3.841" class="i">➜</text><text x="15.03" y="3.841" class="j">geez</text><text x="20.04" y="3.841" class="l">pu</text><text x="22.044" y="3.841" class="k">sh</text></svg><svg x="4966"><use xlink:href="#a"/><use xlink:href="#b" x="22.996" y="2.146"/><use xlink:href="#1"/><text y="3.841" class="g">16:54:21</text><text x="9.018" y="3.841" class="h">[I]</text><text x="13.026" y="3.841" class="i">➜</text><text x="15.03" y="3.841" class="j">geez</text><text x="20.04" y="3.841" class="l">pul</text></svg><svg x="5157"><use xlink:href="#a"/><use xlink:href="#b" x="22.996" y="2.146"/><use xlink:href="#1"/><text y="3.841" class="g">16:54:21</text><text x="9.018" y="3.841" class="h">[I]</text><text x="13.026" y="3.841" class="i">➜</text><text x="15.03" y="3.841" class="j">geez</text><text x="20.04" y="3.841" class="l">pul</text><text x="23.046" y="3.841" class="k">l</text></svg><svg x="5348"><use xlink:href="#a"/><use xlink:href="#b" x="23.996" y="2.146"/><use xlink:href="#1"/><use xlink:href="#3" y="2.171"/></svg><svg x="5539"><use xlink:href="#a"/><use xlink:href="#b" x="-.004" y="4.317"/><use xlink:href="#1"/><use xlink:href="#3" y="2.171"/></svg><svg x="5730"><use xlink:href="#a"/><use xlink:href="#b" x="-.004" y="4.317"/><use xlink:href="#1"/><use xlink:href="#3" y="2.171"/></svg><svg x="5921"><use xlink:href="#a"/><use xlink:href="#b" x="-.004" y="4.317"/><use xlink:href="#1"/><use xlink:href="#3" y="2.171"/></svg><svg x="6112"><use xlink:href="#a"/><use xlink:href="#b" x="-.004" y="4.317"/><use xlink:href="#1"/><use xlink:href="#3" y="2.171"/></svg><svg x="6303"><use xlink:href="#a"/><use xlink:href="#b" x="-.004" y="4.317"/><use xlink:href="#1"/><use xlink:href="#3" y="2.171"/></svg><svg x="6494"><use xlink:href="#a"/><use xlink:href="#1"/><use xlink:href="#3" y="2.171"/></svg><svg x="6685"><use xlink:href="#a"/><use xlink:href="#1"/><use xlink:href="#3" y="2.171"/><use xlink:href="#4" y="4.342"/><use xlink:href="#5" y="6.513"/><use xlink:href="#6" y="8.684"/><use xlink:href="#7" y="10.855"/><use xlink:href="#8" y="13.026"/><use xlink:href="#9" y="15.197"/><use xlink:href="#10" y="17.368"/><use xlink:href="#11" y="19.539"/></svg><svg x="6876"><use xlink:href="#a"/><use xlink:href="#1"/><use xlink:href="#3" y="2.171"/><use xlink:href="#4" y="4.342"/><use xlink:href="#5" y="6.513"/><use xlink:href="#6" y="8.684"/><use xlink:href="#7" y="10.855"/><use xlink:href="#8" y="13.026"/><use xlink:href="#9" y="15.197"/><use xlink:href="#10" y="17.368"/><use xlink:href="#11" y="19.539"/></svg><svg x="7067"><use xlink:href="#a"/><use xlink:href="#1"/><use xlink:href="#3" y="2.171"/><use xlink:href="#4" y="4.342"/><use xlink:href="#5" y="6.513"/><use xlink:href="#12" y="8.684"/><use xlink:href="#13" y="10.855"/><use xlink:href="#14" y="13.026"/><use xlink:href="#15" y="15.197"/><use xlink:href="#16" y="17.368"/><use xlink:href="#17" y="19.539"/></svg><svg x="7258"><use xlink:href="#a"/><use xlink:href="#1"/><use xlink:href="#3" y="2.171"/><use xlink:href="#4" y="4.342"/><use xlink:href="#5" y="6.513"/><use xlink:href="#12" y="8.684"/><use xlink:href="#13" y="10.855"/><use xlink:href="#14" y="13.026"/><use xlink:href="#15" y="15.197"/><use xlink:href="#16" y="17.368"/><use xlink:href="#17" y="19.539"/></svg><svg x="7449"><use xlink:href="#a"/><use xlink:href="#1"/><use xlink:href="#3" y="2.171"/><use xlink:href="#4" y="4.342"/><use xlink:href="#5" y="6.513"/><use xlink:href="#18" y="8.684"/><use xlink:href="#19" y="10.855"/><use xlink:href="#20" y="13.026"/><use xlink:href="#21" y="15.197"/><use xlink:href="#22" y="17.368"/><use xlink:href="#23" y="19.539"/></svg><svg x="7640"><use xlink:href="#a"/><use xlink:href="#1"/><use xlink:href="#3" y="2.171"/><use xlink:href="#4" y="4.342"/><use xlink:href="#5" y="6.513"/><use xlink:href="#18" y="8.684"/><use xlink:href="#19" y="10.855"/><use xlink:href="#20" y="13.026"/><use xlink:href="#21" y="15.197"/><use xlink:href="#22" y="17.368"/><use xlink:href="#23" y="19.539"/></svg><svg x="7831"><use xlink:href="#a"/><use xlink:href="#1"/><use xlink:href="#3" y="2.171"/><use xlink:href="#4" y="4.342"/><use xlink:href="#5" y="6.513"/><use xlink:href="#24" y="8.684"/><use xlink:href="#25" y="10.855"/><use xlink:href="#26" y="13.026"/><use xlink:href="#27" y="15.197"/><use xlink:href="#28" y="17.368"/><use xlink:href="#29" y="19.539"/></svg><svg x="8022"><use xlink:href="#a"/><use xlink:href="#1"/><use xlink:href="#3" y="2.171"/><use xlink:href="#4" y="4.342"/><use xlink:href="#5" y="6.513"/><use xlink:href="#24" y="8.684"/><use xlink:href="#25" y="10.855"/><use xlink:href="#26" y="13.026"/><use xlink:href="#27" y="15.197"/><use xlink:href="#28" y="17.368"/><use xlink:href="#29" y="19.539"/></svg><svg x="8213"><use xlink:href="#a"/><use xlink:href="#1"/><use xlink:href="#3" y="2.171"/><use xlink:href="#4" y="4.342"/><use xlink:href="#30" y="6.513"/><use xlink:href="#31" y="8.684"/><use xlink:href="#32" y="10.855"/></svg><svg x="8404"><use xlink:href="#a"/><use xlink:href="#1"/><use xlink:href="#3" y="2.171"/><use xlink:href="#4" y="4.342"/><use xlink:href="#30" y="6.513"/><use xlink:href="#31" y="8.684"/><use xlink:href="#32" y="10.855"/></svg><svg x="8595"><use xlink:href="#a"/><use xlink:href="#1"/><use xlink:href="#3" y="2.171"/><use xlink:href="#4" y="4.342"/><use xlink:href="#33" y="6.513"/></svg><svg x="8786"><use xlink:href="#a"/><use xlink:href="#b" x="-.004" y="10.83"/><use xlink:href="#1"/><use xlink:href="#3" y="2.171"/><use xlink:href="#4" y="4.342"/><use xlink:href="#33" y="6.513"/></svg><svg x="8977"><use xlink:href="#a"/><use xlink:href="#b" x="-.004" y="10.83"/><use xlink:href="#1"/><use xlink:href="#3" y="2.171"/><use xlink:href="#4" y="4.342"/><use xlink:href="#33" y="6.513"/></svg><svg x="9168"><use xlink:href="#a"/><use xlink:href="#b" x="-.004" y="10.83"/><use xlink:href="#1"/><use xlink:href="#3" y="2.171"/><use xlink:href="#4" y="4.342"/><use xlink:href="#33" y="6.513"/></svg><svg x="9359"><use xlink:href="#a"/><use xlink:href="#b" x="-.004" y="10.83"/><use xlink:href="#1"/><use xlink:href="#3" y="2.171"/><use xlink:href="#4" y="4.342"/><use xlink:href="#33" y="6.513"/></svg><svg x="9550"><use xlink:href="#a"/><use xlink:href="#b" x="-.004" y="10.83"/><use xlink:href="#1"/><use xlink:href="#3" y="2.171"/><use xlink:href="#4" y="4.342"/><use xlink:href="#33" y="6.513"/></svg><svg x="9741"><use xlink:href="#a"/><use xlink:href="#b" x="-.004" y="10.83"/><use xlink:href="#1"/><use xlink:href="#3" y="2.171"/><use xlink:href="#4" y="4.342"/><use xlink:href="#33" y="6.513"/></svg><svg x="9932"><use xlink:href="#a"/><use xlink:href="#b" x="14.996" y="13.001"/><use xlink:href="#1"/><use xlink:href="#3" y="2.171"/><use xlink:href="#4" y="4.342"/><use xlink:href="#33" y="6.513"/><use xlink:href="#34" y="10.855"/><use xlink:href="#35" y="13.026"/></svg><svg x="10123"><use xlink:href="#a"/><use xlink:href="#b" x="-.004" y="15.172"/><use xlink:href="#1"/><use xlink:href="#3" y="2.171"/><use xlink:href="#4" y="4.342"/><use xlink:href="#33" y="6.513"/><use xlink:href="#34" y="10.855"/><use xlink:href="#35" y="13.026"/></svg><svg x="10314"><use xlink:href="#a"/><use xlink:href="#b" x="-.004" y="15.172"/><use xlink:href="#1"/><use xlink:href="#3" y="2.171"/><use xlink:href="#4" y="4.342"/><use xlink:href="#33" y="6.513"/><use xlink:href="#34" y="10.855"/><use xlink:href="#35" y="13.026"/></svg></svg></g></g></svg></svg>